<svg xmlns="http://www.w3.org/2000/svg" width="141" height="141" viewBox="0 0 141 141" aria-labelledby="administration-icon"><title id='administration-icon'>Business administration</title><g fill="none"><path fill="#020202" d="M0 83.455c.193-.587.347-1.19.586-1.758 1.097-2.614 3.481-4.253 6.396-4.264 1.705-.007 3.412-.029 5.117-.004 1.959.028 3.916.013 5.875.008 2.9-.006 5.8.02 8.699.022 3.604.004 7.208.004 10.812 0 3.24 0 6.478.015 9.719.005 2.696-.009 5.394-.022 8.09.005 2.069.02 4.14-.054 6.207-.006 2.233.051 3.994 1.07 5.33 2.848 1.03 1.368 1.296 2.949 1.276 4.602a311.609 311.609 0 0 0 0 6.276c.015 1.67-.018 3.34-.03 5.01v.396c.675-.267 1.284-.544 1.916-.751 1.8-.585 3.67-.897 5.505-1.348 2.07-.51 4.152-.978 6.23-1.457 2.06-.476 4.123-.943 6.184-1.415.544-.123.544-.125.544-.643 0-1.156-.003-2.312.004-3.469 0-.312-.09-.515-.353-.734a17.499 17.499 0 0 1-3.725-4.33c-.193-.32-.393-.487-.8-.468-.762.038-1.528.026-2.292 0-2.813-.096-5.238-1.125-7.32-3.024-1.796-1.641-2.911-3.667-3.425-6.013-.42-1.92-.28-3.84.322-5.714.312-.97.735-1.893 1.328-2.725.269-.36.412-.8.407-1.25-.01-3.022-.023-6.044.008-9.065.028-2.741.53-5.403 1.382-8.012a27.083 27.083 0 0 1 2.115-4.8 26.143 26.143 0 0 1 3.338-4.656c.816-.914 1.664-1.792 2.594-2.575 1.29-1.089 2.639-2.109 4.115-2.94a28.407 28.407 0 0 1 6.204-2.619 27.457 27.457 0 0 1 8.427-1.013c3.746.117 7.302 1.006 10.68 2.593a25.693 25.693 0 0 1 5.937 3.844c2.356 2.047 4.35 4.409 5.93 7.13 2.068 3.572 3.221 7.41 3.59 11.5.055.606.05 1.22.052 1.83.005 2.765.03 5.531-.016 8.298-.013.766.193 1.393.595 2.015 1.275 1.973 1.855 4.161 1.699 6.485-.204 3.06-1.412 5.703-3.728 7.778-2.213 1.982-4.794 2.99-7.78 2.925-.63-.015-1.263.004-1.895-.007-.245-.005-.386.052-.528.29a17.288 17.288 0 0 1-3.844 4.516c-.241.2-.362.408-.356.734.024 1.217.036 2.434.022 3.651-.004.348.178.403.445.463 2.108.479 4.215.964 6.32 1.454 2.524.584 5.049 1.17 7.573 1.758 1.613.378 3.244.68 4.812 1.25 1.827.664 3.442 1.667 4.908 2.924 1.402 1.203 2.568 2.613 3.422 4.244.944 1.802 1.69 3.684 1.793 5.755 0 .332-.136.68.125.98V141H20.524v-4.612c1.4 0 2.73-.007 4.058.004.31 0 .444-.072.438-.416-.019-1.171-.011-2.342-.006-3.514 0-.51.117-.578-.598-.576-2.366.006-4.733-.006-7.1-.006-3.384 0-6.769.004-10.154.011-.91 0-1.814-.09-2.661-.434-2.207-.897-3.628-2.504-4.235-4.82-.056-.214-.094-.438-.266-.6V83.454zm95.41 52.788c.086.118.193.152.346.149.828-.014 1.657-.013 2.486-.012 1.857.002 3.712.007 5.565.013.136 0 .272 0 .34-.15h4.437c.095.183.272.136.421.136.654.008 1.308 0 1.962.004 2.381.006 4.761.012 7.141.02.563 0 1.126-.024 1.688-.017.296.004.384-.107.376-.402-.02-.7 0-1.4 0-2.1l-.011-10.007c-.004-2.953-.006-5.905-.008-8.857 0-1.06.01-2.12.009-3.18 0-.273.067-.385.385-.379 1.216.021 2.434 0 3.651 0 .486 0 .53.054.544.53.008.355 0 .71.004 1.065 0 2.84.033 5.68-.006 8.52a341.31 341.31 0 0 0-.027 5.159c0 1.965 0 3.931.03 5.897.02 1.225.004 2.455.004 3.765h5.86c1.643 0 3.287-.004 4.93-.013.522 0 .519-.008.513-.517-.008-.79-.015-1.581-.014-2.37.005-2.981.019-5.961.02-8.941 0-4.559-.003-9.118-.01-13.678a11.105 11.105 0 0 0-1.35-5.317c-1.31-2.411-3.261-4.145-5.836-5.159-1.05-.413-2.154-.612-3.242-.88-2.122-.513-4.252-1-6.38-1.487-1.266-.29-2.536-.56-3.84-.847-.408 1.997-.815 3.96-1.21 5.925-.465 2.312-.918 4.625-1.38 6.938-.098.49-.106.487-.537.229l-4.239-2.54c-.272-.428-.83-.454-1.155-.779-.767-.768-1.796-1.1-2.664-1.693a.278.278 0 0 0-.258-.032 1.168 1.168 0 0 1-.248-.083c-1.131-.68-2.28-1.338-3.38-2.067-.439-.29-.748-.226-1.145.021-1.16.723-2.334 1.42-3.503 2.128-.089 0-.177.009-.264.026-1.328.408-2.414 1.272-3.587 1.972-.178.106-.382.255-.378.523-1.527.966-3.063 1.918-4.74 2.833.037-.443-.08-.74-.13-1.051-.395-2.397-.79-4.793-1.187-7.19-.257-1.55-.527-3.1-.777-4.654-.091-.567-.1-.582-.68-.456-.724.158-1.447.318-2.168.495-1.483.367-2.98.68-4.47 1.02-1.427.327-2.845.692-4.281.985a12.924 12.924 0 0 0-4.583 1.9c-.256.17-.354.357-.352.663.01 1.262-.015 2.524-.013 3.786.006 2.25.05 4.498.028 6.747-.038 3.814-.015 7.629-.006 11.443 0 1.13-.026 2.26-.48 3.318-.723 1.686-1.94 2.905-3.59 3.696-.476.227-.576.362-.523.865.126 1.229.028 2.461.075 3.691.02.538-.011.544.53.544 3.334 0 6.668-.003 10.001-.01.758 0 .759-.009.759-.748V112.31a3.96 3.96 0 0 0-.004-.476c-.036-.304.108-.376.382-.373 1.196.009 2.392.009 3.587 0 .563 0 .563-.012.566.569v23.527c0 .985-.16.816.816.825 2.564.026 5.128.015 7.692.016.852 0 1.705-.01 2.558-.011.23 0 .462.02.505-.295 1.491-.032 2.962.256 4.445.15zm-90.782-31.58h.016v10.475c0 3.3-.013 6.597 0 9.898.003.783.329 1.416.999 1.886.582.408 1.228.412 1.876.415 1.316.004 2.633-.032 3.95-.034 1.209 0 2.419.034 3.628.036 2.032 0 4.064-.018 6.096-.013 1.092 0 2.184-.055 3.277 0 .496.026.532-.053.536-.596.01-1.42.016-2.84.024-4.258.01-1.768.575-3.383 1.57-4.805 1.333-1.904 3.126-3.22 5.447-3.707 3.583-.748 6.592.291 8.995 3.015 1.327 1.503 1.976 3.307 2.084 5.317.082 1.531 0 3.061.004 4.589 0 .311.068.433.398.443 1.2.04 2.402-.006 3.602-.012 1.608-.007 3.216.046 4.825.01 1.716-.04 3.435-.013 5.153-.01 1.341.004 2.682.022 4.022.022 1.376 0 2.343-.928 2.36-2.326.026-2.033.017-4.067.025-6.1.007-1.88 0-3.762.01-5.642.008-1.859.002-3.718-.018-5.577-.028-2.377-.01-4.756 0-7.133.007-1.496.09-2.988.037-4.478-.037-1.053.007-2.102-.01-3.153-.023-1.403-.012-2.806-.012-4.21 0-1.413-.044-2.828.012-4.24.055-1.377-.926-2.499-2.378-2.49-.538 0-1.076-.021-1.614-.021H48.177c-3.065 0-6.13.004-9.194.013-2.569.005-5.136.022-7.704.019-2.498 0-4.996-.052-7.494-.027-2.702.027-5.404 0-8.106.02-1.638.014-3.278.02-4.918-.01-1.173-.022-2.349.046-3.52 0-1.58-.063-2.617.952-2.604 2.495.016 1.872-.01 3.746-.01 5.618-.004 4.859-.003 9.716.001 14.57zm117.816-44.416c0-1.713-.016-3.289.004-4.865.03-2.405-.261-4.761-.952-7.074-.463-1.558-1.066-3.06-1.865-4.47-.958-1.687-2.083-3.258-3.441-4.661-1.767-1.826-3.746-3.354-6.005-4.532-2.854-1.486-5.883-2.286-9.085-2.493a22.305 22.305 0 0 0-14.378 4.116c-2.2 1.583-4.091 3.469-5.617 5.693a22.633 22.633 0 0 0-3.942 13.77c.052.854.05 1.71-.006 2.563-.05.637.057 1.254-.005 1.95.714-.272 1.343-.503 1.996-.658.68-.158 1.373-.257 2.07-.298.365-.025.454-.13.449-.476-.018-1.201.004-2.403-.014-3.605-.005-.348.087-.466.452-.458 1.177.023 2.354.009 3.534.008.578 0 .555-.052.555.544 0 1.201.008 2.402-.007 3.605 0 .3.108.392.389.39 2.157-.008 4.185-.526 6.106-1.505 1.204-.612 2.247-1.449 3.315-2.39.68.706 1.331 1.392 1.99 2.075.342.356.766.663 1.012 1.077.156.262.23.213.43.156 1.512-.433 2.885-1.15 4.145-2.077.49-.36.934-.78 1.47-1.234.51.536 1.02 1.074 1.534 1.606.329.34.68.665.998 1.012.219.238.55.4.558.786 1.503-.353 3.155-1.205 4.553-2.194.517-.368.78-.748.696-1.397-.057-.43-.012-.447.432-.45 1.156-.005 2.311 0 3.466 0 .666 0 .662 0 .667.647.01 1.273-.057 2.548.023 3.872 1.518.086 3.004.3 4.473.964v.003zM99.788 81.978v-4.037c0-.48.011-.487.486-.49 1.599-.009 3.195-.036 4.796-.01 2.318.037 4.637 0 6.955.013.427 0 .59-.112.713-.493.423-1.31.638-2.678.636-4.055.006-2.955 0-5.91 0-8.865v-2.449c-3.738 2.011-7.272 2.503-11.339 2.2v-1.157c-2.961 1.157-5.966 1.373-9.028 1.16-.072-.384.047-.748-.075-1.113-.204.062-.4.114-.591.178-1.87.63-3.773 1.06-5.762.966-.445-.021-.387.262-.387.532v7.21c0 .929.004 1.855.094 2.782.15 1.615.604 3.187 1.336 4.634 1.046 2.054 2.508 3.781 4.426 5.094 2.786 1.905 5.853 2.7 9.211 2.346 3.194-.337 5.882-1.723 8.17-3.94.121-.118.284-.23.242-.506h-9.883zm-61.164 47.269v-5.335c0-1.08.009-2.145-.509-3.16-1.113-2.186-3.76-3.145-6.062-1.988-1.733.871-2.515 2.402-2.496 4.317.016 1.472.005 2.943.008 4.413 0 1.522-.033 3.044.026 4.566.05 1.264-.03 2.531-.044 3.797-.006.516 0 .527.503.535.759.011 1.519.005 2.279.007l5.855.014c.419 0 .441-.029.441-.476l-.002-6.694v.004zm43.63-51.807c-.54-1.883-.602-3.77-.595-5.667.01-2.468.005-4.936 0-7.404 0-.52-.008-.534-.52-.495-1.864.142-3.438.937-4.62 2.35-2.088 2.485-2.21 5.877-.328 8.428 1.492 2.015 3.549 2.854 6.066 2.785l-.003.003zm35.109.008c2.76.102 4.927-.98 6.341-3.28 1.404-2.286 1.415-4.723.007-7.033-1.291-2.118-3.244-3.202-5.777-3.284v2.066c-.01 1.94-.061 3.877-.023 5.818a24.008 24.008 0 0 1-.19 3.756c-.082.643-.232 1.274-.354 1.954l-.004.003zm-66.277 54.415v.025H49.26c-1.872 0-3.744-.008-5.617 0-.455 0-.49.046-.51.493-.016.355.04.707.024 1.066-.038.837 0 1.677-.008 2.517 0 .312.097.441.432.427.584-.026 1.17-.005 1.753-.005 2.087 0 4.174.002 6.261.006.946 0 1.892-.006 2.838-.005 1.391 0 2.783 0 4.173.012.3 0 .408-.125.404-.402-.006-1.242-.016-2.484-.006-3.726 0-.32-.081-.416-.422-.414-2.5.014-4.998.006-7.496.006zm41.906-42.108c0 .666.02 1.269-.006 1.871-.017.374.093.62.407.85a558.817 558.817 0 0 1 6.158 4.606c.148.11.246.174.404.036.1-.089.232-.14.34-.22.976-.724 1.954-1.444 2.922-2.177 1.038-.784 2.067-1.581 3.102-2.37.102-.077.25-.094.243-.277-.026-.74.076-1.481-.039-2.3-4.503 1.726-8.99 1.711-13.53-.019zm16.542 13.543c.419-2.126.822-4.156 1.217-6.19.192-.989.18-.974-.826-1.223-.407-.102-.703-.023-1.04.246-1.02.812-2.087 1.572-3.132 2.356-.601.45-1.198.908-1.858 1.408 1.882 1.22 3.748 2.258 5.639 3.403zm-13.907-3.45c-.634-.47-1.285-.912-1.891-1.409-.606-.496-1.26-.952-1.896-1.417a9.64 9.64 0 0 1-.906-.705c-.427-.4-.856-.588-1.456-.36-.471.18-.503.129-.425.627.229 1.449.438 2.9.717 4.34.144.74.152 1.51.416 2.23.698-.285 5.006-2.899 5.441-3.307z"/><path fill="#020202" d="M38.864.585c1.353.052 2.684.268 4.02.48 2.55.409 4.982 1.196 7.356 2.168 1.829.748 3.567 1.687 5.252 2.738 1.57.974 3.061 2.07 4.46 3.277 2.527 2.185 4.737 4.652 6.573 7.449a36.815 36.815 0 0 1 3.18 5.931c.981 2.332 1.683 4.731 2.188 7.207.59 2.894.764 5.813.633 8.752a34.979 34.979 0 0 1-1.436 8.415 36.217 36.217 0 0 1-9.902 16.123 35.642 35.642 0 0 1-11.162 7.213 36.174 36.174 0 0 1-6.562 1.971c-2.681.528-5.385.797-8.124.696a37.97 37.97 0 0 1-8.065-1.156 35.971 35.971 0 0 1-9.483-3.969 35.599 35.599 0 0 1-6.721-5.186A36.04 36.04 0 0 1 6.334 57c-1.829-2.72-3.293-5.611-4.326-8.722A37.391 37.391 0 0 1 .41 41.335c-.109-.833-.063-1.691-.366-2.505-.092-.246-.014-.555-.014-.835v-2.856c-.016-.515.203-.993.235-1.503.084-1.462.33-2.902.606-4.336.239-1.238.611-2.445.983-3.65a32.692 32.692 0 0 1 2.172-5.293 39.289 39.289 0 0 1 2.91-4.78 35.81 35.81 0 0 1 3.78-4.465 34.615 34.615 0 0 1 7.473-5.74c1.23-.7 2.464-1.39 3.766-1.939a37.7 37.7 0 0 1 6.605-2.107c1.745-.381 3.493-.68 5.278-.748.317-.043.662.142.95-.119h3.53c.138.23.35.139.545.126zM36.55 68.462c17.252-.082 31.377-14.123 31.476-31.512.099-17.639-14.028-31.837-31.47-31.933C18.795 4.922 4.723 19.183 4.668 36.67 4.612 54.302 18.98 68.592 36.546 68.462h.004z"/><path fill="#176FB4" d="M34.102.507l-.115-.12h.919c-.246.265-.537.077-.804.12zm106.512 109.262c-.237-.252-.115-.547-.113-.827l.113-.092v.919zM38.855.504c-.263.013-.55.1-.734-.118h.918l-.184.118z"/><path fill="#1869B0" d="M84.054 14.246c1.453 0 2.81.011 4.166-.008.335-.005.426.11.422.425-.017 1.244-.04 2.488-.01 3.732.009.398-.137.44-.46.435-1.224-.02-2.456-.022-3.683-.03-.23 0-.443.012-.44-.337.011-1.383.005-2.765.005-4.217zm15.6.002c.63 0 1.26.006 1.888-.004.266 0 .401.043.397.373-.015 1.268-.01 2.537.022 3.803.01.442-.271.41-.527.41-.862 0-1.724-.023-2.586-.032-.339-.003-.67.014-1.005.01-.317-.004-.492-.136-.474-.497.028-.56.023-1.12.034-1.68.012-.65.055-1.302.028-1.95-.016-.395.143-.453.474-.442.579.023 1.164.008 1.749.009zm11.526 2.529c0-.893.04-1.523-.014-2.145-.03-.342.082-.395.36-.394 1.297.004 2.594.004 3.892 0 .23 0 .323.072.321.311a332.934 332.934 0 0 0 0 3.936c0 .292-.185.363-.39.342-1.279-.132-2.558.063-3.836-.037-.265-.02-.357-.105-.364-.358-.019-.644.087-1.28.032-1.655z"/><path fill="#176FB4" d="M90.94 136.234c-.024-1.278.184-2.538.268-3.808.057-.862.135-1.723.21-2.583.166-1.97.335-3.94.499-5.91.114-1.382.201-2.767.33-4.148.174-1.924.265-3.855.486-5.775.075-.654.04-1.32.15-1.973.045-.26-.05-.501-.124-.735-.336-1.059-.69-2.112-1.04-3.166-.057-.169-.097-.359-.307-.41-.005-.27.197-.42.373-.526 1.158-.702 2.23-1.568 3.542-1.985a1.34 1.34 0 0 1 .26-.026c0 .09-.028.19 0 .274.376 1.184.758 2.365 1.138 3.547.053.166.17.17.314.167.556-.01 1.112-.008 1.667-.007 1.154 0 2.307.004 3.46.013.225 0 .356-.052.433-.304.374-1.231.773-2.457 1.163-3.685a.27.27 0 0 1 .255.032c.857.596 1.873.93 2.63 1.703.32.327.868.353 1.141.782-.454.958-.658 2.016-1.052 2.997-.429 1.066-.247 2.131-.134 3.216.144 1.422.226 2.85.335 4.276l.505 6.51c.134 1.672.255 3.344.402 5.014.149 1.71.33 3.417.47 5.127.041.507.134 1.021.027 1.534h-4.393c-.201-1.71-.32-3.436-.459-5.156-.194-2.416-.42-4.83-.617-7.246-.197-2.416-.353-4.85-.577-7.27-.077-.838-.106-1.68-.201-2.516-.042-.364-.19-.438-.51-.435-1.297.013-2.594 0-3.892.008-.463 0-.457.016-.496.505-.115 1.446-.237 2.891-.354 4.337-.242 2.99-.474 5.98-.723 8.969-.196 2.352-.403 4.704-.582 7.058-.044.578.026 1.188-.22 1.746-1.463.103-2.915-.187-4.377-.151z"/><path fill="#1869B0" d="M36.533 59.241H16.877c-.791 0-.78 0-.78-.774 0-2.276-.015-4.551-.015-6.826 0-1.672-.027-3.346.026-5.016.068-2.071.854-3.825 2.49-5.172.69-.567 1.472-.938 2.305-1.217 1.964-.663 3.93-1.32 5.896-1.973.852-.284 1.7-.58 2.56-.837.246-.074.328-.177.327-.414a96.294 96.294 0 0 1 .01-2.216c.004-.288-.095-.482-.33-.676-1.166-.97-2.15-2.099-2.864-3.442-.834-1.566-1.3-3.234-1.313-5.01-.014-1.775-.042-3.537.017-5.303.064-1.932.649-3.717 1.68-5.374a11.71 11.71 0 0 1 2.897-3.165 10.58 10.58 0 0 1 3.051-1.578 11.335 11.335 0 0 1 4.466-.574c1.967.146 3.8.714 5.451 1.818 2.271 1.518 3.839 3.563 4.642 6.161.392 1.27.538 2.58.5 3.916-.037 1.3 0 2.603-.022 3.903-.055 2.974-1.078 5.558-3.177 7.7-.346.354-.695.712-1.088 1.014a.628.628 0 0 0-.276.562c0 .78 0 1.562-.025 2.343-.009.27.177.27.34.325.939.309 1.884.6 2.816.926 2.099.734 4.258 1.299 6.311 2.15 2.34.968 3.688 2.757 4.09 5.256.12.736.069 1.47.078 2.204.01.98-.017 1.96 0 2.942.02 1.081-.024 2.163-.025 3.248 0 1.086.014 2.159.034 3.238.009.53-.062 1.059 0 1.59.021.184-.093.284-.293.277-.182-.007-.363 0-.544 0l-19.58-.006zm-2.262-22.78v.444c.003 1.1 0 2.198.017 3.297.005.295-.09.405-.385.494-.966.288-1.915.633-2.874.946-1.646.54-3.298 1.064-4.942 1.612-1.342.45-2.68.914-4.013 1.39-.94.337-1.375 1.051-1.383 2.016-.02 2.488-.019 4.975-.024 7.463 0 .57 0 .57.586.573h30.402a2.48 2.48 0 0 1 .34 0c.332.048.418-.089.416-.413-.021-2.556-.023-5.112-.034-7.668 0-.246-.043-.49-.13-.72-.308-.82-.97-1.202-1.741-1.46-.772-.259-1.536-.498-2.302-.75-1.453-.48-2.906-.96-4.359-1.443-1.575-.526-3.145-1.062-4.722-1.58-.228-.075-.33-.164-.327-.416.008-.627-.015-1.255-.021-1.883-.007-.6.068-1.204-.02-1.852-1.502.23-2.978.26-4.484-.05zm9.036-13.338c0-.732-.006-1.464 0-2.196.02-2.168-.884-3.95-2.533-5.271-1.521-1.217-3.307-1.714-5.323-1.405-3.296.506-5.745 3.508-5.705 6.656.013 1.06-.045 2.12-.021 3.18.019.86-.06 1.731.112 2.578.637 3.228 3.502 5.543 6.812 5.506 3.505-.03 6.682-2.992 6.656-6.664-.003-.794.002-1.59.002-2.384z"/></g></svg>