<svg xmlns="http://www.w3.org/2000/svg" viewBox="0 0 67.8 19.84" aria-labelledby="champion-logo-icon"><title id='champion-logo-icon'>Champion Global</title><defs><style>.cls-1{fill:#ffffff;}</style></defs>
<g id="Layer_2" data-name="Layer 2"><g id="Layer_1-2" data-name="Layer 1"><path class="cls-1" d="M27,8.48a2.52,2.52,0,0,1-2-.86,3.85,3.85,0,0,1-.72-2.51,5.27,5.27,0,0,1,.18-1.45A3.21,3.21,0,0,1,25,2.6,2.43,2.43,0,0,1,25.86,2,3,3,0,0,1,27,1.73a2.64,2.64,0,0,1,1.43.37,2.55,2.55,0,0,1,.9,1.1l-.89.49a1.62,1.62,0,0,0-.52-.75,1.65,1.65,0,0,0-2.1.24,2.16,2.16,0,0,0-.43,1.43v1A2.14,2.14,0,0,0,25.82,7,1.43,1.43,0,0,0,27,7.55a1.4,1.4,0,0,0,1-.31,1.76,1.76,0,0,0,.55-.78l.85.52a2.56,2.56,0,0,1-.92,1.1A2.47,2.47,0,0,1,27,8.48Z"/><path class="cls-1" d="M30.59,1.45h1V4.31h.05a1.48,1.48,0,0,1,.48-.65A1.32,1.32,0,0,1,33,3.4a1.45,1.45,0,0,1,1.17.49,2.13,2.13,0,0,1,.41,1.4V8.37h-1v-3c0-.76-.3-1.13-.91-1.13a1.31,1.31,0,0,0-.39,0,1,1,0,0,0-.34.15.85.85,0,0,0-.24.26.75.75,0,0,0-.09.37V8.37h-1Z"/><path class="cls-1" d="M39.76,8.37a.83.83,0,0,1-.62-.23,1,1,0,0,1-.26-.58h-.05a1.2,1.2,0,0,1-.51.69,1.73,1.73,0,0,1-.91.23,1.61,1.61,0,0,1-1.16-.39A1.4,1.4,0,0,1,35.84,7a1.24,1.24,0,0,1,.53-1.09,2.75,2.75,0,0,1,1.55-.36h.88V5.16a.9.9,0,0,0-.25-.69,1,1,0,0,0-.75-.24,1.16,1.16,0,0,0-.7.19,1.59,1.59,0,0,0-.46.47L36,4.34a2,2,0,0,1,.68-.68,2.3,2.3,0,0,1,1.15-.26,2.1,2.1,0,0,1,1.45.44,1.56,1.56,0,0,1,.51,1.26V7.54h.51v.83ZM37.7,7.71a1.39,1.39,0,0,0,.79-.21.65.65,0,0,0,.31-.57v-.7h-.86c-.71,0-1.06.22-1.06.65v.17a.56.56,0,0,0,.22.49A1,1,0,0,0,37.7,7.71Z"/><path class="cls-1" d="M41.52,8.37V3.51h1v.8h0A2.31,2.31,0,0,1,42.76,4a1.53,1.53,0,0,1,.27-.3,1,1,0,0,1,.36-.19,1.45,1.45,0,0,1,.49-.07,1.64,1.64,0,0,1,.88.24,1.37,1.37,0,0,1,.56.75h0a1.39,1.39,0,0,1,.5-.7,1.49,1.49,0,0,1,1-.29A1.38,1.38,0,0,1,48,3.89a2.18,2.18,0,0,1,.4,1.4V8.37h-1v-3a1.42,1.42,0,0,0-.21-.85.82.82,0,0,0-.69-.28,1.14,1.14,0,0,0-.37,0,.81.81,0,0,0-.31.15.78.78,0,0,0-.22.26.75.75,0,0,0-.09.37V8.37h-1v-3c0-.76-.29-1.13-.88-1.13a1.14,1.14,0,0,0-.37,0,.91.91,0,0,0-.33.15.92.92,0,0,0-.22.26.75.75,0,0,0-.08.37V8.37Z"/><path class="cls-1" d="M50,3.51h1v.8h0a1.31,1.31,0,0,1,.52-.67,1.49,1.49,0,0,1,.85-.24,1.69,1.69,0,0,1,1.43.67,3.08,3.08,0,0,1,.5,1.87,3.08,3.08,0,0,1-.5,1.87,1.69,1.69,0,0,1-1.43.67,1.49,1.49,0,0,1-.85-.24A1.39,1.39,0,0,1,51,7.57h0v2.67H50ZM52.07,7.6a1.1,1.1,0,0,0,.85-.34,1.29,1.29,0,0,0,.32-.9V5.52a1.25,1.25,0,0,0-.32-.9,1.1,1.1,0,0,0-.85-.34,1.34,1.34,0,0,0-.79.22.73.73,0,0,0-.31.61V6.77a.7.7,0,0,0,.31.6A1.27,1.27,0,0,0,52.07,7.6Z"/><path class="cls-1" d="M56.18,2.64a.61.61,0,0,1-.46-.15.52.52,0,0,1-.15-.38V2a.5.5,0,0,1,.15-.38.61.61,0,0,1,.46-.15.62.62,0,0,1,.46.15.54.54,0,0,1,.14.38v.16a.56.56,0,0,1-.14.38A.62.62,0,0,1,56.18,2.64Zm-.51.87h1V8.37h-1Z"/><path class="cls-1" d="M60.24,8.48a2.25,2.25,0,0,1-.92-.18,1.73,1.73,0,0,1-.71-.51,2.38,2.38,0,0,1-.45-.8,3.53,3.53,0,0,1,0-2.1,2.54,2.54,0,0,1,.45-.81,1.8,1.8,0,0,1,.71-.5,2.25,2.25,0,0,1,.92-.18,2.32,2.32,0,0,1,.92.18,1.84,1.84,0,0,1,.7.5,2.54,2.54,0,0,1,.45.81,3.13,3.13,0,0,1,.16,1.05,3.13,3.13,0,0,1-.16,1,2.38,2.38,0,0,1-.45.8,1.76,1.76,0,0,1-.7.51A2.32,2.32,0,0,1,60.24,8.48Zm0-.85a1.15,1.15,0,0,0,.84-.32,1.31,1.31,0,0,0,.31-1V5.53a1.31,1.31,0,0,0-.31-1,1.12,1.12,0,0,0-.84-.32,1.14,1.14,0,0,0-.85.32,1.31,1.31,0,0,0-.31,1v.82a1.31,1.31,0,0,0,.31,1A1.18,1.18,0,0,0,60.24,7.63Z"/><path class="cls-1" d="M63.79,8.37V3.51h1v.8h0a1.65,1.65,0,0,1,.48-.65,1.35,1.35,0,0,1,.89-.26,1.43,1.43,0,0,1,1.16.49,2.07,2.07,0,0,1,.42,1.4V8.37h-1V5.42c0-.76-.31-1.14-.92-1.14a1.31,1.31,0,0,0-.39,0,1,1,0,0,0-.34.15.85.85,0,0,0-.24.26.89.89,0,0,0-.08.38V8.37Z"/><path class="cls-1" d="M28.58,18h0a1.3,1.3,0,0,1-.56.78,2.05,2.05,0,0,1-1.2.31,2.58,2.58,0,0,1-1.08-.22,2.3,2.3,0,0,1-.85-.64,3.06,3.06,0,0,1-.56-1.06,4.58,4.58,0,0,1-.2-1.45,4.52,4.52,0,0,1,.2-1.44,3,3,0,0,1,.58-1.07,2.54,2.54,0,0,1,.9-.65A3.13,3.13,0,0,1,27,12.3a2.68,2.68,0,0,1,1.48.39,2.63,2.63,0,0,1,.95,1.08l-.86.5a1.76,1.76,0,0,0-.58-.74,1.57,1.57,0,0,0-1-.29,1.61,1.61,0,0,0-1.25.5,1.93,1.93,0,0,0-.47,1.4v1.07a1.94,1.94,0,0,0,.47,1.41,1.64,1.64,0,0,0,1.25.5,2.33,2.33,0,0,0,.59-.08A1.4,1.4,0,0,0,28,17.8a1.1,1.1,0,0,0,.33-.38,1.08,1.08,0,0,0,.13-.54v-.51H27.14v-.91h2.37v3.48h-.93Z"/><path class="cls-1" d="M32.12,18.94a1.06,1.06,0,0,1-.78-.27,1,1,0,0,1-.25-.74V12h1v6.09h.67v.83Z"/><path class="cls-1" d="M35.84,19.05a2.32,2.32,0,0,1-.92-.18,1.76,1.76,0,0,1-.7-.51,2.38,2.38,0,0,1-.45-.8,3.53,3.53,0,0,1,0-2.1,2.54,2.54,0,0,1,.45-.81,1.84,1.84,0,0,1,.7-.5,2.32,2.32,0,0,1,.92-.18,2.25,2.25,0,0,1,.92.18,1.8,1.8,0,0,1,.71.5,2.54,2.54,0,0,1,.45.81,3.53,3.53,0,0,1,0,2.1,2.38,2.38,0,0,1-.45.8,1.73,1.73,0,0,1-.71.51A2.25,2.25,0,0,1,35.84,19.05Zm0-.85a1.14,1.14,0,0,0,.85-.32,1.31,1.31,0,0,0,.31-1V16.1a1.31,1.31,0,0,0-.31-1,1.18,1.18,0,0,0-.85-.32,1.14,1.14,0,0,0-.84.32,1.31,1.31,0,0,0-.31,1v.82a1.31,1.31,0,0,0,.31,1A1.1,1.1,0,0,0,35.84,18.2Z"/><path class="cls-1" d="M39.39,12h1v2.86h.05a1.35,1.35,0,0,1,.52-.67,1.48,1.48,0,0,1,.84-.24,1.66,1.66,0,0,1,1.43.67,3,3,0,0,1,.51,1.87,3,3,0,0,1-.51,1.87,1.66,1.66,0,0,1-1.43.67,1.48,1.48,0,0,1-.84-.24,1.39,1.39,0,0,1-.52-.67h-.05v.8h-1Zm2.13,6.15a1.1,1.1,0,0,0,.85-.34,1.26,1.26,0,0,0,.31-.9v-.84a1.28,1.28,0,0,0-.31-.9,1.1,1.1,0,0,0-.85-.34,1.25,1.25,0,0,0-.79.23.71.71,0,0,0-.32.6v1.66a.74.74,0,0,0,.32.61A1.32,1.32,0,0,0,41.52,18.17Z"/><path class="cls-1" d="M48.68,18.94a.81.81,0,0,1-.62-.23,1,1,0,0,1-.26-.58h0a1.2,1.2,0,0,1-.51.69,1.76,1.76,0,0,1-.91.23,1.6,1.6,0,0,1-1.16-.39,1.4,1.4,0,0,1-.41-1.06,1.24,1.24,0,0,1,.53-1.09,2.74,2.74,0,0,1,1.54-.36h.88v-.41a1,1,0,0,0-.24-.7,1,1,0,0,0-.76-.24A1.18,1.18,0,0,0,46,15a1.72,1.72,0,0,0-.46.47l-.6-.55a1.9,1.9,0,0,1,.68-.67A2.15,2.15,0,0,1,46.78,14a2.11,2.11,0,0,1,1.45.44,1.59,1.59,0,0,1,.5,1.26v2.44h.51v.83Zm-2.06-.66a1.33,1.33,0,0,0,.78-.21.65.65,0,0,0,.31-.57v-.7h-.86c-.7,0-1.05.22-1.05.65v.17a.56.56,0,0,0,.22.49A1,1,0,0,0,46.62,18.28Z"/><path class="cls-1" d="M51.47,18.94a1,1,0,0,1-.78-.27,1,1,0,0,1-.26-.74V12h1v6.09h.67v.83Z"/><path class="cls-1" d="M9.92,19.84A10,10,0,0,1,0,9.92,10,10,0,0,1,9.92,0V2.83A7.15,7.15,0,0,0,2.83,9.92,7.15,7.15,0,0,0,9.92,17Z"/><path class="cls-1" d="M20.31,8.52h-7V4.82H10.49V15h2.83V11.34h4.14a7.18,7.18,0,0,1-7,5.67v2.83A10,10,0,0,0,20.31,8.52Z"/><path class="cls-1" d="M16.68,6.8h3.23A9.93,9.93,0,0,0,10.49,0V2.83a7.09,7.09,0,0,1,6.19,4"/></g></g></svg>