<svg xmlns="http://www.w3.org/2000/svg" width="140" height="140" viewBox="0 0 140 140" aria-labelledby="support-icon"><title id='support-icon'>Customer support</title><g fill="none"><path fill="#020202" d="M139.363 26.238c-.144 1.74-.99 3.108-2.276 4.223-1.296 1.123-2.833 1.62-4.536 1.627-1.806.007-3.611.007-5.417 0a1.773 1.773 0 0 0-1.01.287 3707.024 3707.024 0 0 1-14.135 8.845 9335.55 9335.55 0 0 0-6.694 4.187c-.112.068-.212.177-.451.136l2.278-13.338c-.208-.177-.42-.11-.615-.11-1.714-.005-3.429 0-5.146-.005-1.325-.004-2.585-.276-3.724-.986-1.924-1.194-3.057-2.915-3.245-5.178-.102-1.229-.04-2.472-.044-3.708-.007-2.545-.012-5.09-.013-7.635 0-2.52-.022-5.042.017-7.562.05-3.276 2.663-6.33 6.243-6.543.187.076.4.048.56-.075h31.552c.226.204.452.146.677 0h.136c.017.068.046.124.124.129 2.789.179 5.572 2.925 5.717 5.696a.157.157 0 0 0 .117.142v.136c-.159.141-.114.334-.114.506-.005 2.543-.008 5.085-.007 7.627 0 2.361-.001 4.722-.005 7.082 0 1.507.007 3.013.011 4.517zm-28.39 10.277l6.652-4.157c2.424-1.514 4.85-3.023 7.265-4.551.301-.193.654-.29 1.011-.28 2.256.01 4.512 0 6.77.01.37 0 .723-.043 1.047-.216.942-.498 1.28-1.318 1.278-2.347-.008-5.852-.021-11.703.01-17.555.007-1.4-1.045-2.503-2.5-2.471-2.98.067-5.959.019-8.933.019-7.422 0-14.844.021-22.266-.019-1.463-.008-2.518 1.153-2.454 2.374.04.765.01 1.532.01 2.3 0 5.12.01 10.242-.024 15.363-.01 1.505 1.033 2.595 2.558 2.567 3.453-.065 6.906-.021 10.354-.018.243 0 .494-.049.745.056-.507 2.945-1.009 5.888-1.523 8.925z"/><path fill="#1869B0" d="M0 50.826c.264.096.412-.12.595-.228 1.119-.664 2.234-1.337 3.393-2.031l4.19 6.989c.27-.173.203-.432.254-.64a65.888 65.888 0 0 1 2.88-8.84 60.844 60.844 0 0 1 3.996-8.096 63.255 63.255 0 0 1 21.699-21.995 62.508 62.508 0 0 1 22.065-8.238c3.327-.56 6.692-.86 10.066-.893 3.074-.019 6.146.18 9.192.594 3.187.424 6.313 1.124 9.395 2.026.086.025.17.056.259.073.287.058.348.217.262.49-.277.88-.525 1.765-.819 2.64-.141.42-.195.876-.414 1.218-17.497-4.874-34.027-2.858-49.36 7.028-13.406 8.645-21.67 21.895-24.798 34.987 2.08-1.176 4.026-2.422 6.064-3.6l2.316 3.856-13.197 7.93c-.679-1.127-1.342-2.223-2-3.321-1.814-3.028-3.621-6.06-5.448-9.08-.158-.26-.16-.682-.59-.734v-.135z"/><path fill="#FEFEFF" d="M139.478 6.45a.16.16 0 0 1-.118-.143c-.148-2.81-2.972-5.593-5.802-5.773-.08-.005-.109-.064-.127-.13h6.047V6.45z"/><path fill="#166FB4" d="M139.426 26.135c-.004-1.503-.01-3.005-.011-4.508 0-2.355.002-4.71.005-7.065 0-2.536.003-5.071.007-7.607 0-.172-.045-.364.114-.505v19.752a.533.533 0 0 0-.115-.067zM.403 95.538c-.164-.046-.028-.283-.403-.196v-2.199l.058-.023.052.028.293 2.39zm45.178 44.404l-.029-.04.034-.038 2.34-.044.045.122zM133.431.337c-.134.146-.269.203-.403 0h.403zm-32.249.008c-.111.122-.259.15-.388.073l-.015-.044.027-.029h.376z"/><path fill="#020202" d="M47.753 139.837l-2.385.044c-4.056-.32-7.528-1.895-10.41-4.798-3.773-3.8-7.573-7.572-11.355-11.362-3.842-3.85-7.682-7.705-11.518-11.562-2.397-2.403-4.786-4.812-7.208-7.189-2.26-2.217-3.756-4.851-4.456-7.936-.114-.503-.164-1.02-.244-1.532L0 92.852c.213-1.397.368-2.802.817-4.154.77-2.323 1.99-4.368 3.713-6.103 2.582-2.6 5.172-5.192 7.77-7.778.807-.812 1.618-1.615 2.433-2.432l16.693 16.72-4.772 4.769c-1.4 1.4-2.826 2.775-4.186 4.216-.812.856-.848 2.107 0 3.002 1.456 1.534 2.978 3.007 4.472 4.505.97.973 1.943 1.942 2.907 2.918.093.095.15.228.258.399.306-.483.396-.897.523-1.292.57-1.779 1.193-3.53 2.245-5.097 1.441-2.148 3.261-3.865 5.52-5.145 1.825-1.034 3.793-1.595 5.839-1.95 1.856-.324 3.71-.667 5.564-1.002 2.679-.48 5.355-.962 8.027-1.446.508-.092.512-.114.535-.657.018-.438-.123-.689-.532-.942-4.075-2.527-7.064-5.997-8.967-10.41a22.985 22.985 0 0 1-1.285-4.038c-.071-.32-.194-.432-.497-.513-2.648-.706-4.59-2.313-5.847-4.735-.652-1.257-.927-2.618-.921-4.04.015-3.52.015-7.036.02-10.553.003-2.086-.012-4.172.014-6.258.033-2.628.52-5.183 1.296-7.69a29.313 29.313 0 0 1 8.49-13.148c2.805-2.489 5.959-4.4 9.489-5.674 13.223-4.78 27.975.5 35.175 12.59 1.744 2.92 2.92 6.057 3.589 9.398.507 2.535.537 5.092.533 7.658-.008 6.692-.01 13.384-.007 20.077 0 1.644-.014 3.288 0 4.932.026 3.168-2.252 6.04-5.588 6.658-.506.093-1.03.11-1.545.117a136.74 136.74 0 0 1-3.651 0c-.367-.005-.623.087-.857.394-1.432 1.878-3.173 3.43-5.11 4.77-.24.165-.49.319-.739.473-.473.286-.669.83-.508 1.37.062.21.234.192.375.217 2.028.37 4.065.727 6.097 1.099 3.16.577 6.336 1.069 9.473 1.765 2.854.632 5.314 2.05 7.381 4.104 1.731 1.72 3.018 3.737 3.786 6.074.956 2.905 1.942 5.8 2.914 8.7.749 2.236 1.496 4.472 2.242 6.708.035.105.05.216.097.427H64.988c1.103 1.212 2.289 2.253 3.35 3.42l-5.424 4.993c-2.037 1.873-4.067 3.755-6.119 5.613-2.332 2.111-5.07 3.376-8.18 3.827-.287.038-.575.085-.862.129zM22.27 91.217c.178.061.283.385.55.117.743-.744 1.496-1.469 2.271-2.228l-10.343-10.35c-.793.79-1.523 1.523-2.263 2.245-.115.113-.158.208-.09.35-.811.766-1.563 1.598-2.408 2.332-.286.249-.406.639-.657.915-.157-.154-.29-.155-.453.017-.62.65-1.33 1.232-1.869 1.943-1.893 2.5-2.762 5.307-2.362 8.461a11.29 11.29 0 0 0 1.53 4.425c.737 1.233 1.75 2.222 2.751 3.224 1.923 1.925 3.861 3.835 5.784 5.76 2.065 2.069 4.116 4.152 6.182 6.221a4243.56 4243.56 0 0 0 8.789 8.777l4.682 4.67c1.482 1.476 2.921 2.999 4.462 4.414 2.439 2.243 5.38 3.113 8.647 2.8 2.637-.255 4.906-1.355 6.79-3.234.092.03.136-.02.159-.098l.008-.005c.32.038.485-.203.669-.39 1.034-1.034 2.054-2.08 3.09-3.114.222-.22.41-.474.556-.752.186.1.29-.035.406-.14.45-.405.9-.812 1.347-1.222.365-.333.725-.673 1.092-1.004.185-.167.228-.323.014-.496a2.524 2.524 0 0 1-.198-.183l-6.518-6.542c-1.108-1.117-2.2-2.251-3.301-3.385-1.042.82-1.907 1.704-2.844 2.505-.245.21-.097.338.022.495-.936.806-1.758 1.729-2.648 2.583-.187.179-.321.45-.643.437-.28-.31-.47-.126-.702.091-2.117 1.979-5.566 2.166-7.902.758-.783-.474-1.402-1.115-2.037-1.75l-8.918-8.9-5.814-5.812c-.586-.589-1.208-1.15-1.643-1.872-1.44-2.388-1.444-4.802-.087-7.22.27-.49.624-.928 1.045-1.295l-.425-.51c1.208-.887 2.496-1.69 3.28-3.037zm84.7 26.129c.056-.244-.03-.36-.068-.486-.607-1.836-1.215-3.671-1.825-5.506-.46-1.384-.866-2.79-1.402-4.143-1.555-3.926-4.438-6.302-8.557-7.152-1.978-.406-3.974-.737-5.963-1.1a9456.81 9456.81 0 0 1-9.473-1.74c-.24-.044-.362.05-.515.204-1.303 1.307-2.617 2.602-3.921 3.907-1.766 1.764-3.528 3.53-5.288 5.299-.194.195-.347.382-.64.075-1.726-1.802-3.516-3.542-5.293-5.293a297.337 297.337 0 0 1-3.848-3.88c-.244-.249-.46-.332-.824-.251-.874.195-1.768.305-2.652.466a4301.9 4301.9 0 0 0-11 2.019c-1.497.277-3 .508-4.403 1.188-2.79 1.354-4.722 3.475-5.792 6.363-.561 1.516-1.029 3.067-1.56 4.594-.126.363-.098.602.197.891 1.385 1.354 2.788 2.69 4.088 4.121 1.226 1.348 2.694 1.417 4.036.147 2.403-2.272 4.881-4.468 7.332-6.688.676-.613 1.362-1.218 2.042-1.82.118.1.209.168.288.248 2.72 2.722 5.437 5.447 8.151 8.175.261.264.517.355.88.354 2.541-.01 5.083 0 7.626 0 3.305 0 6.61-.003 9.915-.008h13.97c3.014 0 6.028.003 9.042.01 1.82.004 3.638.005 5.457.004v.002zM94.303 59.83c.107-.092.098-.177.098-.27-.004-2.65-.007-5.3-.007-7.95a23.448 23.448 0 0 0-.846-6.189 24.88 24.88 0 0 0-8.224-12.707c-3.022-2.47-6.431-4.166-10.25-5.027a24.742 24.742 0 0 0-9.309-.321 24.203 24.203 0 0 0-8.226 2.859 24.955 24.955 0 0 0-11.91 15.352 24.147 24.147 0 0 0-.812 5.728c-.04 2.251-.015 4.503-.008 6.754 0 .576-.047 1.157.042 1.781.694-.29 1.329-.619 2.012-.817.193-.055.222-.174.216-.356-.018-.539-.013-1.078-.02-1.617-.009-.632-.01-.643.615-.63a33.762 33.762 0 0 0 4.856-.214 24.377 24.377 0 0 0 8.666-2.788 23.233 23.233 0 0 0 5.209-3.798c1.06-1.033 2.114-2.073 3.215-3.152.879.876 1.74 1.724 2.593 2.582a24.791 24.791 0 0 0 8.17 5.489c3.178 1.315 6.49 1.905 9.925 1.881.473-.003.947.022 1.42 0 .316-.013.44.08.427.416-.023.609 0 1.218-.009 1.827 0 .203.036.335.26.395.665.18 1.29.48 1.897.772zM81.295 85.76H70.179c-.587 0-.591-.006-.593-.587a734.5 734.5 0 0 1 0-3.452c0-.502.008-.51.52-.51 1.803-.003 3.606-.003 5.409 0 3.064 0 6.13 0 9.194.003.3 0 .525-.01.707-.345 1.501-2.768 2.23-5.723 2.236-8.868l.01-7.48c0-1.101-.011-2.204 0-3.306.003-.325-.125-.44-.437-.44-.81 0-1.606-.162-2.403-.294a28.58 28.58 0 0 1-8.641-2.926 29.164 29.164 0 0 1-6.195-4.39c-.39-.358-.398-.357-.756-.011-.68.659-1.42 1.245-2.174 1.817-4.422 3.367-9.416 5.266-14.932 5.818-.554.055-.555.05-.555.583.004 2.364-.012 4.728.016 7.092.023 1.933-.102 3.866.12 5.8.442 3.834 1.97 7.16 4.536 10.018 2.036 2.268 4.499 3.893 7.369 4.926a17.514 17.514 0 0 0 7.685.972 17.703 17.703 0 0 0 7.2-2.29c1.003-.577 1.956-1.228 2.8-2.13zm-4.965 7.987a23.5 23.5 0 0 1-6.753 1.016c-2.26.006-4.462-.394-6.54-.953l6.56 6.662 6.733-6.725zm13.987-12.555c.758 0 1.477.045 2.188-.01.937-.073 1.768-.9 1.86-1.86.118-1.244.024-2.493.035-3.845-.791.436-1.488.752-2.231.936-.338.083-.493.233-.55.564m-44.565-5.42v-7.749c-1.487.978-2.262 2.266-2.227 3.968.031 1.612.767 2.85 2.227 3.781zm45.115-.026c1.798-1.14 2.515-2.85 2.12-4.874-.231-1.187-1.29-2.529-2.12-2.691v7.565z"/><path fill="#1869B0" d="M115.29 106.914c14.142-17.735 15.492-39.56 9.833-55.72l-3.861 6.466c-.61-.187-1.08-.616-1.62-.904-.648-.346-1.265-.752-1.896-1.132-.365-.22-.372-.224-.139-.615a2809.2 2809.2 0 0 1 3.282-5.48c1.332-2.228 2.663-4.456 3.992-6.685.375-.63.37-.634.956-.28l11.92 7.211c.115.068.223.15.343.208.226.11.19.274.092.439a1063.5 1063.5 0 0 1-2.153 3.557l-6.425-3.886c-.068.29.056.511.128.738.887 2.803 1.61 5.649 2.091 8.55.404 2.433.671 4.886.802 7.35.102 1.907.106 3.814.055 5.718a52.986 52.986 0 0 1-.537 6.152c-.478 3.309-1.161 6.574-2.146 9.771a63.681 63.681 0 0 1-8.001 16.95 59.867 59.867 0 0 1-3.007 4.12c-.134.168-.234.307-.476.106-1.06-.882-2.141-1.748-3.232-2.634z"/><path fill="#FEFEFF" d="M130.608 9.302c-.157-.016-.222-.029-.287-.029H110.18c-2.02 0-4.041-.004-6.062 0-.505 0-.507.015-.507.535 0 1.133.01 2.265.008 3.398 0 .667-.032.609.561.609h8.615l10.911.005c2.11 0 4.219.007 6.328.007.558 0 .576-.026.575-.48-.002-1.334-.001-2.671-.001-4.045zM103.6 22.968h2.36l8.41.005h6.73c.502 0 .508-.01.51-.533.003-1.164.003-2.328 0-3.491 0-.53-.008-.531-.495-.554-.09-.004-.18 0-.27 0-2.793.007-5.586.018-8.378.018-2.662 0-5.324-.013-7.986-.014-.864 0-.864.008-.865.847 0 .09-.014.181-.014.274-.002 1.132-.002 2.266-.002 3.448zm26.963-4.527a1.99 1.99 0 0 0-.26-.036c-1.289-.007-2.577-.003-3.865-.02-.322-.004-.364.167-.363.423.007 1.228.004 2.456.016 3.684.005.48.017.485.48.486 1.143 0 2.285-.007 3.427-.006.588 0 .59.005.597-.58 0-.089-.03-.179-.03-.268-.003-1.2-.002-2.399-.002-3.683z"/><path fill="#166FB4" d="M54.528 131.815c.194-.306.511-.49.764-.739.24-.234.271-.402.02-.65-.643-.62-1.267-1.258-1.898-1.887a3315.168 3315.168 0 0 0-4.376-4.336c-1.128-1.112-2.265-2.215-3.397-3.326a.626.626 0 0 1-.089-.173c.323.014.457-.256.644-.433.892-.847 1.716-1.762 2.655-2.561.278.255.565.502.834.768 1.8 1.772 3.61 3.535 5.388 5.33 1.255 1.268 2.585 2.464 3.782 3.79a3.048 3.048 0 0 1-.558.745c-1.038 1.022-2.06 2.06-3.097 3.088-.186.182-.352.42-.672.384zm-35.59-37.486c-.456-.45-.916-.895-1.367-1.349a7516.693 7516.693 0 0 1-7.918-7.985c-.094-.093-.267-.347-.381-.433.477-.58.515-.553.799-.8.833-.734 1.57-1.567 2.372-2.333.61.481 1.111 1.08 1.66 1.624 1.544 1.536 3.064 3.092 4.59 4.648 1.166 1.19 2.32 2.393 3.478 3.591-.774 1.348-2.042 2.15-3.233 3.037zm35.482 37.939c.014-.109.202-.108.404-.098-.064.077-.164.13-.403.098z"/><path fill="#1869B0" d="M130.61 9.299v3.94c0 .443-.018.467-.576.467-2.11 0-4.22-.006-6.33-.007l-10.916-.005h-8.618c-.594 0-.563.057-.562-.593 0-1.102-.005-2.204-.007-3.307 0-.507 0-.52.506-.52 2.025-.005 4.043 0 6.065 0h20.148c.067-.003.133.009.29.025zM103.6 22.568v-3.337c0-.088.015-.176.015-.265 0-.812 0-.82.851-.82 2.622 0 5.243.015 7.865.014 2.75 0 5.5-.01 8.25-.017.09 0 .178-.006.267 0 .48.021.485.022.487.535.004 1.126.004 2.252 0 3.378 0 .506-.008.515-.503.516-2.209.003-4.418.003-6.627 0l-8.282-.005-2.322.001zm26.98-4.373v3.555c0 .086.03.173.03.26-.008.564-.01.559-.587.559-1.12 0-2.24.007-3.36.005-.456 0-.468-.006-.473-.468-.011-1.186-.008-2.371-.015-3.557 0-.247.04-.413.355-.409 1.265.017 2.528.013 3.793.02.086.006.172.017.257.035z"/></g></svg>