<svg xmlns="http://www.w3.org/2000/svg" viewBox="0 0 482.114 482.114" fill="#fff" aria-labelledby="sales-icon"><title id='sales-icon'>Drive sales</title><path d="M475.249 330.426l-.009-.001v-.024l-31.112-4.44a8 8 0 0 1-3.672-14.328l10.2-7.632H472a8 8 0 0 0 8-8v-288a8 8 0 0 0-8-8H8a8 8 0 0 0-8 8v288a8 8 0 0 0 8 8h20.688l-10.344 10.344a8 8 0 0 0-.928 10.192l15.2 22.112-26.296 5.52A8 8 0 0 0 0 360.001v32a8 8 0 0 0 6.352 7.832l26.296 5.528-15.2 22.104a8 8 0 0 0 .928 10.192l24 24a8 8 0 0 0 10.192.928l22.104-15.2 5.528 26.296a8 8 0 0 0 7.8 6.32h32a8 8 0 0 0 7.832-6.352l5.528-26.304 22.104 15.24a8 8 0 0 0 10.192-.928l24-24a8 8 0 0 0 .928-10.192l-15.2-22.112 26.296-5.52a8 8 0 0 0 6.32-7.832v-32a8 8 0 0 0-6.352-7.832l-26.296-5.528 15.2-22.104a8 8 0 0 0-.928-10.192l-10.312-10.344h33.016l-6.4 44.52a8.001 8.001 0 0 0 6.871 9.08l31.112 4.44a8 8 0 0 1 3.672 14.328L222.4 395.201a8 8 0 0 0-1.6 11.2l28.8 38.4a8 8 0 0 0 11.2 1.6l25.144-18.864a8 8 0 0 1 12.72 7.536l-4.448 31.112a8 8 0 0 0 6.783 9.055l.009.001 47.512 6.784c.376.057.756.087 1.136.088a8 8 0 0 0 7.92-6.872l4.448-31.112a8 8 0 0 1 14.32-3.672l18.856 25.144a8 8 0 0 0 11.2 1.6l38.4-28.8a8 8 0 0 0 1.6-11.2l-18.864-25.144a8 8 0 0 1 7.536-12.72l31.112 4.44a8 8 0 0 0 9.056-6.782v-.002l6.792-47.512a8.001 8.001 0 0 0-6.783-9.055zM192 366.497v19.008l-19.944 4.192c-8.648 1.817-14.185 10.3-12.368 18.948a16.004 16.004 0 0 0 2.488 5.796l11.424 16.616-14.544 14.544-16.616-11.456c-7.276-5.014-17.239-3.18-22.254 4.096a16.003 16.003 0 0 0-2.482 5.784l-4.2 19.976H94.496l-4.2-19.936c-1.829-8.645-10.32-14.171-18.965-12.342a15.99 15.99 0 0 0-5.731 2.454l-16.656 11.424L34.4 431.057l11.456-16.616c5.018-7.274 3.19-17.238-4.084-22.256a15.987 15.987 0 0 0-5.796-2.488L16 385.505v-19.008l19.944-4.192c8.645-1.83 14.169-10.322 12.339-18.967a16.003 16.003 0 0 0-2.459-5.737L34.4 320.945l14.544-14.544L65.6 317.825c7.276 5.014 17.24 3.18 22.254-4.096a16.003 16.003 0 0 0 2.482-5.784l4.16-19.944h19.008l4.2 19.936c1.816 8.648 10.298 14.187 18.946 12.371a16.016 16.016 0 0 0 5.79-2.483l16.616-11.424 14.544 14.544-11.424 16.656c-5.018 7.274-3.19 17.238 4.084 22.256a15.987 15.987 0 0 0 5.796 2.488L192 366.497zm-53.864-65.144l-4.8 3.296-5.528-26.296a8 8 0 0 0-7.808-6.352h-16v-56h32v80a7.905 7.905 0 0 0 2.136 5.352zM176 168.001a8 8 0 0 0-8 8v112h-16v-80a8 8 0 0 0-8-8H96a8 8 0 0 0-8 8v64a8 8 0 0 0-7.832 6.352l-5.528 26.304-22.104-15.24A7.84 7.84 0 0 0 48 288.089v-.088H16v-272h448v261.336l-25.6-34.136a8 8 0 0 0-11.2-1.6l-25.144 18.864a8 8 0 0 1-12.72-7.536l4.448-31.112a7.902 7.902 0 0 0-1.784-6.168V72.001a8 8 0 0 0-8-8h-48a8 8 0 0 0-8 8v157.712l-2.024 14.16a7.936 7.936 0 0 1-13.976 4V112.001a8 8 0 0 0-8-8h-48a8 8 0 0 0-8 8v134l-4.8 3.6a8 8 0 0 0-1.6 11.2l18.864 25.144a8 8 0 0 1-7.536 12.72L232 295.681v-119.68a8 8 0 0 0-8-8h-48zm200-88v131.2l-32-4.576V80.001h32zm-80 40v106.672l-3.2-4.272a8 8 0 0 0-11.2-1.6l-17.6 13.2v-114h32zm-80 168h-32v-104h32v104zm244.528 88.8l-23.2-3.312c-13.122-1.874-25.278 7.244-27.152 20.366-.9 6.301.74 12.702 4.56 17.794l14.064 18.752-25.6 19.2-14.056-18.744c-7.947-10.609-22.989-12.766-33.597-4.82a24.001 24.001 0 0 0-9.371 15.82l-3.312 23.2-31.664-4.528 3.312-23.2c1.87-13.122-7.252-25.276-20.374-27.146a24.002 24.002 0 0 0-17.778 4.554l-18.76 14.064-19.2-25.6 18.736-14.056c10.605-7.952 12.756-22.995 4.804-33.599a24.004 24.004 0 0 0-15.804-9.361l-23.2-3.32 4.528-31.672 23.2 3.312c13.122 1.874 25.278-7.244 27.152-20.366.9-6.301-.74-12.702-4.56-17.794L259.2 257.601l25.6-19.2 14.056 18.744c7.947 10.609 22.989 12.766 33.597 4.82a24.001 24.001 0 0 0 9.371-15.82l3.312-23.2 31.672 4.528-3.312 23.2c-1.87 13.122 7.252 25.276 20.374 27.146a24.002 24.002 0 0 0 17.778-4.554l18.752-14.064 19.2 25.6-18.736 14.056c-10.605 7.952-12.756 22.995-4.804 33.599a24.004 24.004 0 0 0 15.804 9.361l23.2 3.32-4.536 31.664z"/><path d="M104 328.001c-26.51 0-48 21.49-48 48s21.49 48 48 48 48-21.49 48-48c-.026-26.499-21.501-47.974-48-48zm0 80c-17.673 0-32-14.327-32-32 0-17.673 14.327-32 32-32s32 14.327 32 32c0 17.673-14.327 32-32 32zM344 280.001c-35.346 0-64 28.654-64 64 0 35.346 28.654 64 64 64 35.346 0 64-28.654 64-64-.04-35.33-28.67-63.96-64-64zm0 112c-26.51 0-48-21.49-48-48s21.49-48 48-48 48 21.49 48 48c-.026 26.499-21.501 47.974-48 48zM321.6 32.161l-40-8-3.2 15.68 19.392 3.888-213.84 125.368 8.096 13.808L308.656 55.929l-4.496 22.472 15.68 3.136 8-40a8 8 0 0 0-6.24-9.376zM32 216.001h16v56H32zM32 184.001h16v16H32zM432 104.001h16v120h-16zM432 72.001h16v16h-16zM184 456.001h16v16h-16zM216 456.001h16v16h-16zM248 456.001h16v16h-16z"/></svg>