<svg xmlns="http://www.w3.org/2000/svg" width="41" height="40" viewBox="0 0 41 40" aria-labelledby="champion-icon"><title id='champion-icon'>Champion Global</title><g fill="#FFF"><path d="M20 40C8.994 39.905.095 31.006 0 20 .095 8.994 8.994.095 20 0v5.718C12.139 5.782 5.782 12.138 5.718 20c.064 7.861 6.42 14.218 14.282 14.282V40zm20.818-23.365H26.724V9H21v21.063h5.724v-7.605h8.34C33.62 29.233 27.782 34.085 21 34.148V40c5.79-.045 11.28-2.633 15.073-7.104 3.793-4.472 5.521-10.396 4.745-16.261z"/><path d="M33.15 14H40C37.15 5.641 29.086-.003 20 0v5.837c5.613.128 10.684 3.276 13.15 8.163"/></g></svg>