<svg xmlns="http://www.w3.org/2000/svg" width="24" height="24" viewBox="0 0 24 24" aria-labelledby="mail-icon"><title id='mail-icon'>Email</title><g fill="#FFF"><path d="M23.069 8.801a.38.38 0 0 0-.5-.07l-1.022.68V.831a.87.87 0 0 0-.912-.83l-.016.002H2.85c-.472-.04-.887.324-.926.812v8.253l-.49-.327a.381.381 0 0 0-.528.071A4.23 4.23 0 0 0 0 11.492v8.51c.021 1.84.99 3.808 3.704 3.808h16.605c1.78 0 3.687-1.003 3.687-3.814v-8.504a3.854 3.854 0 0 0-.927-2.69zM2.85.821h17.78c.084 0 .132.032.132 0v9.135l-8.756 5.873L2.72 9.602 2.709.869A.191.191 0 0 1 2.85.82zM.943 20.91a4.044 4.044 0 0 1-.11-.91l-.016-8.509a3.588 3.588 0 0 1 .495-1.852l7.576 5.077L.943 20.91zm19.366 2.081l-.006-.005h-16.6c-1.38 0-2.106-.605-2.48-1.291l8.365-6.521 2.202 1.476c.053.028.11.042.169.044a.385.385 0 0 0 .168-.044l2.144-1.438 8.398 6.537a2.868 2.868 0 0 1-2.36 1.242zM23.2 11.487l-.006 8.51c.002.33-.037.66-.115.98l-8.003-6.227 7.629-5.115c.346.55.519 1.196.495 1.852z"/><path d="M13.653 3.196c-1.778-.953-3.96-.222-4.872 1.634a3.911 3.911 0 0 0-.4 1.727c.012 2.083 1.634 3.764 3.63 3.76.294 0 .587-.038.872-.115a.347.347 0 0 0 .253-.175.37.37 0 0 0 .031-.302.322.322 0 0 0-.12-.22.376.376 0 0 0-.322-.06c-.232.06-.47.086-.71.076-1.58.003-2.863-1.331-2.866-2.98-.003-1.65 1.276-2.99 2.856-2.992 1.58-.003 2.864 1.331 2.866 2.98.005.477-.105.947-.32 1.368a.955.955 0 0 1-.453.45h-.079c-.11 0-.115-.302-.115-.302V6.54c.055-1.096-.752-2.032-1.802-2.09-1.05-.057-1.946.785-2.001 1.88-.004.07-.004.14 0 .21-.02 1.124.832 2.056 1.91 2.086.42.002.828-.152 1.151-.434v.027c.004.21.068.412.184.582.158.22.41.345.673.335a.791.791 0 0 0 .237 0c.408-.14.751-.433.963-.823V8.28c.913-1.856.212-4.132-1.566-5.085zm-1.643 4.63l.005.005c-.644-.02-1.151-.582-1.132-1.255l.002-.03c-.03-.681.473-1.26 1.125-1.295.654.038 1.16.612 1.142 1.295.02.681-.49 1.252-1.142 1.28z"/></g></svg>