<svg xmlns="http://www.w3.org/2000/svg" width="141" height="141" viewBox="0 0 141 141" aria-labelledby="marketing-icon"><title id='marketing-icon'>Marketing</title><g fill="none"><path fill="#000" d="M68.934 119.066a3.2 3.2 0 0 0-2.245-.93c-.835 0-1.654.339-2.245.93a3.2 3.2 0 0 0-.93 2.245c0 .839.34 1.654.93 2.245.59.594 1.41.93 2.245.93.835 0 1.655-.336 2.245-.93a3.2 3.2 0 0 0 .93-2.245 3.2 3.2 0 0 0-.93-2.245z"/><path fill="#000" d="M82.994 94.03V73.875c0-.91-.458-1.76-1.222-2.27a2.809 2.809 0 0 0-2.59-.27l-47.833 19.01H15.943C7.153 90.343 0 97.4 0 106.076c0 8.675 7.152 15.733 15.943 15.733h1.835v16.45c0 1.513 1.243 2.74 2.776 2.74h11.332c1.533 0 2.776-1.227 2.776-2.74v-15.128l44.52 17.67a2.806 2.806 0 0 0 2.59-.272 2.73 2.73 0 0 0 1.222-2.27v-20.156c5.567-1.25 9.736-6.17 9.736-12.036 0-5.867-4.17-10.787-9.736-12.037zM29.11 135.522h-5.78V121.81h5.78v13.711zm0-19.19H15.943c-5.73 0-10.391-4.6-10.391-10.254 0-5.655 4.661-10.255 10.391-10.255h13.169l-.002 20.51zm48.333 17.875l-42.78-16.98V94.933L65.04 82.86v27.185c0 1.513 1.243 2.74 2.776 2.74 1.533 0 2.776-1.227 2.776-2.74V80.654l6.852-2.724v56.276zm5.551-21.842V99.77c2.46 1.06 4.184 3.483 4.184 6.296 0 2.814-1.724 5.237-4.184 6.297z"/><path fill="#1869B0" d="M119.127 104.162H103.17c-1.557 0-2.819 1.422-2.819 3.176 0 1.753 1.262 3.176 2.819 3.176h15.957c1.557 0 2.819-1.423 2.819-3.176 0-1.754-1.262-3.176-2.819-3.176zM105.95 83.32a2.572 2.572 0 0 0-3.636 0l-5.02 5.021a2.571 2.571 0 0 0 3.635 3.636l5.02-5.02a2.571 2.571 0 0 0 0-3.637zm.012 41.93l-5.104-5.104a2.53 2.53 0 0 0-3.577 3.577l5.105 5.104c.494.493 1.14.74 1.788.74a2.53 2.53 0 0 0 1.788-4.317z"/><path fill="#000" d="M129.906 0H78.319C72.2 0 67.224 4.94 67.224 11.013v1.101H20.63c-3.67 0-6.656 2.965-6.656 6.608v43.5c0 3.644 2.986 6.609 6.656 6.609h2.866v8.443c0 1.113.676 2.117 1.712 2.544a2.789 2.789 0 0 0 3.023-.597l10.467-10.39H93.79c3.67 0 6.657-2.965 6.657-6.608v-8.26h29.46c6.117 0 11.094-4.94 11.094-11.013V11.013C141 4.94 136.023 0 129.906 0zM94.899 62.223c0 .607-.498 1.101-1.11 1.101H37.548c-.736 0-1.441.29-1.961.806l-6.544 6.497v-4.55a2.764 2.764 0 0 0-2.774-2.753h-5.64a1.107 1.107 0 0 1-1.109-1.101V18.722c0-.607.498-1.101 1.11-1.101h46.594v25.33c0 6.072 4.977 11.012 11.095 11.012h16.58v8.26zm40.554-19.273c0 3.036-2.488 5.507-5.547 5.507H78.319c-3.06 0-5.547-2.47-5.547-5.507V11.013c0-3.036 2.488-5.507 5.547-5.507h51.587c3.059 0 5.547 2.47 5.547 5.507V42.95z"/><path fill="#146EB4" d="M115.5 24.978L96.823 14.334a2.759 2.759 0 0 0-2.729 0 2.688 2.688 0 0 0-1.364 2.333v21.288c0 .962.52 1.852 1.364 2.333a2.752 2.752 0 0 0 2.73 0L115.5 29.644a2.688 2.688 0 0 0 1.365-2.333c0-.963-.52-1.852-1.365-2.333zM98.188 33.29V21.333l10.49 5.978-10.49 5.978z"/><path fill="#1869B0" d="M58.22 29.216H30.699c-1.52 0-2.752 1.422-2.752 3.176 0 1.753 1.232 3.176 2.752 3.176h27.523c1.52 0 2.752-1.422 2.752-3.176 0-1.754-1.232-3.176-2.752-3.176zm3.093 16.174a3.198 3.198 0 0 0-2.245-.93c-.836 0-1.655.339-2.246.93a3.2 3.2 0 0 0-.93 2.245 3.2 3.2 0 0 0 .93 2.245 3.2 3.2 0 0 0 2.246.93c.838 0 1.654-.339 2.245-.93a3.2 3.2 0 0 0 .93-2.245 3.2 3.2 0 0 0-.93-2.245zm-12.003-.93H31.987c-1.53 0-2.772 1.422-2.772 3.175 0 1.754 1.241 3.176 2.772 3.176H49.31c1.531 0 2.772-1.422 2.772-3.176 0-1.753-1.24-3.176-2.772-3.176z"/></g></svg>