<svg xmlns="http://www.w3.org/2000/svg" viewBox="0 0 501.216 501.216" fill="#fff" aria-labelledby="customers-icon"><title id='customers-icon'>Retain customers</title><path d="M312.264 4.952l-11.312 11.312 10.344 10.344H178.608v16h132.688l-10.344 10.344 11.312 11.312 29.656-29.656zM330.608 82.608H197.92l10.344-10.344-11.312-11.312-29.656 29.656 29.656 29.656 11.312-11.312-10.344-10.344h132.688z"/><path d="M343.104 397.48l-52.496-9.552v-4.144c19.632-11.4 34.008-30.848 38.488-53.84 14.544-3.008 25.512-15.912 25.512-31.336v-79.016c0-9.048-2.496-17.56-6.76-24.984h153.368l-13.36-46.752c-4.216-14.768-16.728-25.944-31.888-28.472l-21.36-3.56V110.2c10.216-9.136 16-21.888 16-35.592v-24c0-26.472-21.528-48-48-48s-48 21.528-48 48v24c0 13.704 5.784 26.464 16 35.592v5.624l-21.368 3.56c-15.152 2.52-27.664 13.704-31.88 28.472l-4.984 17.432c-18.312-17.176-42.032-26.68-67.264-26.68-21.864 0-42.016 7.248-58.376 19.344l-2.88-10.096c-4.216-14.768-16.728-25.944-31.888-28.472l-21.36-3.56V110.2c10.216-9.136 16-21.888 16-35.592v-24c0-26.472-21.528-48-48-48s-48 21.528-48 48v24c0 13.704 5.784 26.464 16 35.592v5.624l-21.36 3.568c-15.152 2.52-27.664 13.704-31.88 28.472L0 194.608h156.384c-6.2 12.888-9.776 27.272-9.776 42.504v61.496c0 15.424 10.968 28.328 25.512 31.336 4.488 22.992 18.856 42.448 38.488 53.84v4.144l-52.496 9.544c-20.824 3.792-37.536 18.736-43.624 39.008l-18.632 62.128H405.36l-18.632-62.128c-6.088-20.272-22.8-35.216-43.624-39zm-12.496-85.096v-27.552c4.76 2.776 8 7.88 8 13.776s-3.24 11-8 13.776zm2.136-160.136c2.528-8.856 10.04-15.56 19.128-17.08l34.736-5.776v-26.944l-3.176-2.4c-8.152-6.168-12.824-15.44-12.824-25.44v-24c0-17.648 14.352-32 32-32s32 14.352 32 32v24c0 10-4.672 19.272-12.824 25.44l-3.176 2.392v26.944l34.736 5.784c9.096 1.512 16.6 8.216 19.136 17.08l7.52 26.36H333.432a50.174 50.174 0 0 0-7.024-4.176l6.336-22.184zM21.218 178.6l7.526-26.352c2.528-8.856 10.04-15.56 19.128-17.08l34.736-5.776v-26.944l-3.176-2.4c-8.152-6.168-12.824-15.44-12.824-25.44v-24c0-17.648 14.352-32 32-32s32 14.352 32 32v24c0 10-4.672 19.272-12.824 25.44l-3.176 2.392v26.944l34.736 5.784c9.096 1.512 16.6 8.216 19.136 17.08l4.992 17.472a98.41 98.41 0 0 0-7.416 8.88H21.218zm149.39 133.784c-4.76-2.776-8-7.88-8-13.776s3.24-11 8-13.776v27.552zm0-53.776v9.136a31.73 31.73 0 0 0-8 3.312v-33.944c0-45.488 37.008-82.504 82.504-82.504 22.032 0 42.76 8.584 58.344 24.168l7.056 7.064 2.152.528a34.19 34.19 0 0 1 25.944 33.224v51.464a31.44 31.44 0 0 0-8-3.312v-9.136H305.24c-21.68 0-42.4-10.352-55.4-27.688l-6.36-8.496-15.896 15.904c-13.088 13.08-30.48 20.28-48.976 20.28h-8zm16 56V274.24c19.752-1.832 38.08-10.4 52.288-24.6l3.112-3.112c16.04 17.704 39.144 28.08 63.232 28.08h9.368v40c0 35.288-28.712 64-64 64s-64-28.712-64-64zm40.68 76.512c7.384 2.256 15.208 3.488 23.32 3.488s15.936-1.232 23.32-3.488l-23.32 17.488-23.32-17.488zm11.144 28.352l-16.328 16.32-10.592-31.768 5.096-.92 21.824 16.368zm46.176-16.368l5.088.928-10.592 31.768-16.328-16.32 21.832-16.376zM117.36 482.608l12.464-41.528c4.344-14.48 16.28-25.16 31.16-27.856l34.64-6.296 19.496 58.496 35.488-35.504 35.496 35.496L305.6 406.92l34.64 6.296c14.872 2.704 26.816 13.384 31.16 27.856l12.456 41.536H117.36zM474.608 450.608c-13.232 0-24 10.768-24 24s10.768 24 24 24 24-10.768 24-24-10.768-24-24-24zm0 32c-4.408 0-8-3.584-8-8s3.592-8 8-8c4.408 0 8 3.584 8 8s-3.592 8-8 8zM26.608 450.608c-13.232 0-24 10.768-24 24s10.768 24 24 24 24-10.768 24-24-10.768-24-24-24zm0 32c-4.408 0-8-3.584-8-8s3.592-8 8-8 8 3.584 8 8-3.592 8-8 8zM18.608 418.608h16v16h-16zM18.608 386.608h16v16h-16zM18.608 354.608h16v16h-16zM466.608 418.608h16v16h-16zM466.608 386.608h16v16h-16zM466.608 354.608h16v16h-16z"/></svg>