<svg xmlns="http://www.w3.org/2000/svg" width="24" height="24" viewBox="0 0 24 24" aria-labelledby="telephone-icon"><title id='telephone-icon'>Phone</title><g fill="#FFF"><path d="M11.268 18.126a.429.429 0 1 0 .607.606.429.429 0 0 0-.607-.606z"/><path d="M22.942 17.482l-3.562-3.026a.481.481 0 0 0-.052-.038 2.334 2.334 0 0 0-2.919.32l-1.942 1.94a.468.468 0 0 1-.511.102c-2.194-.907-3.996-2.271-5.356-4.055-1.037-1.361-1.411-2.442-1.46-2.595a.465.465 0 0 0-.029-.096.466.466 0 0 1 .102-.51l1.942-1.941a2.327 2.327 0 0 0 .306-2.938L6.888 1.074a2.348 2.348 0 0 0-3.63-.387l-.39.388v.001l-1.39 1.387C-.176 4.118-.447 6.603.696 9.653c.98 2.611 2.94 5.47 5.522 8.048 2.642 2.64 5.58 4.635 8.275 5.618 2.667.973 5.503 1.093 7.511-.913l1.31-1.308a2.342 2.342 0 0 0-.37-3.616zm-4.144-2.29l3.56 3.024a.462.462 0 0 0 .052.039c.76.483.875 1.545.239 2.18l-.097.098-6.071-4.54.592-.592a1.4 1.4 0 0 1 1.725-.208zM6.104 1.59l.015.022 2.572 3.57a1.396 1.396 0 0 1-.2 1.739l-.573.573L3.811 1.46l.11-.11a1.409 1.409 0 0 1 2.183.239zm8.71 20.85c-2.568-.938-5.386-2.856-7.933-5.4-2.489-2.486-4.373-5.226-5.307-7.715-.7-1.869-1.171-4.46.568-6.198l.993-.992 4.108 6.034-.693.692a1.4 1.4 0 0 0-.321 1.493c.148.607.83 1.867 1.517 2.796 1.011 1.367 2.848 3.256 5.851 4.497.528.218 1.13.098 1.533-.305l.68-.68 6.071 4.541-.542.542c-1.864 1.862-4.577 1.405-6.525.694z"/><path d="M10.12 17.203c-.515-.422-1.405-1.147-1.874-1.598-1.15-1.104-2.355-2.442-3.073-3.409a.509.509 0 0 0-.678-.115.437.437 0 0 0-.123.634c.905 1.219 2.234 2.62 3.176 3.525.495.476 1.392 1.207 1.93 1.647a.512.512 0 0 0 .687-.042.435.435 0 0 0-.045-.642z"/></g></svg>