<svg xmlns="http://www.w3.org/2000/svg" viewBox="0 0 480 480" fill="#fff" aria-labelledby="overhead-icon"><title id='overhead-icon'>Reduce overhead</title><path d="M48 416a8 8 0 0 0 8 8h144a8 8 0 0 0 8-8v-39.84c-.043-17.847-11.855-33.531-29-38.496l-27-7.71v-10.161A39.82 39.82 0 0 0 168 288v-8a8 8 0 0 0 8-8v-8c0-26.508-21.492-48-48-48s-48 21.492-48 48v8a8 8 0 0 0 8 8v8a39.82 39.82 0 0 0 16 31.793v10.16l-26.992 7.711C59.859 342.625 48.039 358.31 48 376.16zm80-184c17.59 0 31.883 14.195 32 31.785a8.006 8.006 0 0 1-5.281-4.219l-3.559-7.132a8 8 0 0 0-11.602-3.09l-11.902 7.937A39.895 39.895 0 0 1 105.465 264H96c0-17.672 14.328-32 32-32zm-22.535 48a55.826 55.826 0 0 0 31.062-9.406l4.383-2.922a23.633 23.633 0 0 0 11.09 10V288c0 13.254-10.746 24-24 24s-24-10.746-24-24v-8zM128 328a39.869 39.869 0 0 0 8-.8v8.8a7.934 7.934 0 0 0 2.762 5.922L128 350l-10.762-8.078A7.934 7.934 0 0 0 120 336v-8.8c2.633.534 5.313.804 8 .8zm-64 48.16a24.114 24.114 0 0 1 17.398-23.113l17.403-4.957 24.398 18.308a7.992 7.992 0 0 0 9.602 0l24.398-18.308 17.41 4.965A24.102 24.102 0 0 1 192 376.16V408h-16v-32h-16v32H96v-32H80v32H64zm0 0M424 376c13.254 0 24-10.746 24-24v-96c0-13.254-10.746-24-24-24H264c-13.254 0-24 10.746-24 24v96c0 13.254 10.746 24 24 24h56v32h-16v16h80v-16h-16v-32zm-160-16a8 8 0 0 1-8-8v-96a8 8 0 0 1 8-8h160a8 8 0 0 1 8 8v96a8 8 0 0 1-8 8h-56v-40a8 8 0 0 0-8-8h-32a8 8 0 0 0-8 8v40zm72 48v-80h16v80zm0 0M160 160h48v40c0 3.234 1.95 6.152 4.938 7.39s6.43.551 8.718-1.734L267.312 160H368c13.254 0 24-10.746 24-24V24c0-13.254-10.746-24-24-24H160c-13.254 0-24 10.746-24 24v112c0 13.254 10.746 24 24 24zm-8-136a8 8 0 0 1 8-8h208a8 8 0 0 1 8 8v112a8 8 0 0 1-8 8H264a8.001 8.001 0 0 0-5.656 2.344L224 180.688V152a8 8 0 0 0-8-8h-56a8 8 0 0 1-8-8zm0 0M480 432H0v16h16v24a8 8 0 0 0 8 8h432a8 8 0 0 0 8-8v-24h16zm-32 32H32v-16h416zm0 0"/><path d="M192 40h144v16H192zm0 0M192 72h144v16H192zm0 0M192 104h144v16H192zm0 0M8 272h40v-16H16V80h40V64H8a8 8 0 0 0-8 8v192a8 8 0 0 0 8 8zm0 0M72 64h16v16H72zm0 0M104 64h16v16h-16zm0 0M432 152h16V72a8 8 0 0 0-8-8h-32v16h24zm0 0M432 168h16v16h-16zm0 0M432 200h16v16h-16zm0 0"/></svg>